<svg width="88" height="30" viewBox="0 0 88 30" fill="none" xmlns="http://www.w3.org/2000/svg">
<g clip-path="url(#clip0)">
<path d="M24.9441 5.90577L15.6556 0.510724C14.9962 0.174562 14.2673 -0.000610352 13.528 -0.000610352C12.7888 -0.000610352 12.0599 0.174562 11.4004 0.510724L2.12417 5.90577C1.50609 6.31164 0.991502 6.85804 0.621924 7.50088C0.252347 8.14371 0.0381367 8.86497 -0.00341797 9.60645V20.3965C0.0381367 21.138 0.252347 21.8593 0.621924 22.5021C0.991502 23.145 1.50609 23.6914 2.12417 24.0972L11.4126 29.4923C12.0721 29.8284 12.8009 30.0036 13.5402 30.0036C14.2794 30.0036 15.0083 29.8284 15.6678 29.4923L24.9441 24.0942C25.5621 23.6883 26.0767 23.1419 26.4463 22.4991C26.8159 21.8562 27.0301 21.135 27.0716 20.3935V9.60339C27.0296 8.86244 26.8152 8.14179 26.4456 7.49952C26.0761 6.85725 25.5617 6.31134 24.9441 5.90577ZM21.1235 19.0294C20.6307 19.5356 20.0403 19.935 19.3886 20.2033C18.7368 20.4715 18.0374 20.6028 17.3334 20.5892C16.4776 20.5903 15.634 20.3848 14.8735 19.99C14.113 19.5951 13.4577 19.0224 12.9627 18.3199V19.9408C12.963 19.9762 12.9562 20.0112 12.9426 20.0438C12.929 20.0765 12.909 20.1059 12.8837 20.1305C12.8582 20.1549 12.8282 20.174 12.7953 20.1866C12.7624 20.1992 12.7274 20.2051 12.6922 20.2039L12.2211 20.1855C12.1542 20.1831 12.0908 20.1547 12.0443 20.1062C11.9978 20.0577 11.9718 19.9929 11.9719 19.9255V11.6678C11.3042 11.1036 10.4577 10.7987 9.58592 10.8084C9.09023 10.8034 8.59857 10.8985 8.14003 11.088C7.68148 11.2775 7.26536 11.5576 6.91625 11.9118C6.56715 12.2659 6.29216 12.6869 6.10753 13.1498C5.92291 13.6128 5.8324 14.1082 5.84137 14.607V19.9653C5.84137 20.0343 5.81415 20.1004 5.7657 20.1491C5.71725 20.1979 5.65153 20.2253 5.58302 20.2253H5.11191C5.07798 20.2253 5.04439 20.2185 5.01304 20.2055C4.9817 20.1924 4.95322 20.1733 4.92923 20.1491C4.90524 20.125 4.88621 20.0963 4.87322 20.0648C4.86024 20.0333 4.85356 19.9994 4.85356 19.9653V10.4261C4.85356 10.392 4.86024 10.3582 4.87322 10.3266C4.88621 10.2951 4.90524 10.2664 4.92923 10.2423C4.95322 10.2181 4.9817 10.199 5.01304 10.1859C5.04439 10.1729 5.07798 10.1661 5.11191 10.1661H5.57998C5.64849 10.1661 5.71421 10.1935 5.76266 10.2423C5.81111 10.291 5.83833 10.3572 5.83833 10.4261V11.6342C6.17523 11.1783 6.59626 10.792 7.0784 10.4965C7.83253 10.0345 8.70004 9.794 9.58288 9.80219C10.4202 9.79786 11.243 10.0231 11.9627 10.4536V9.80219C11.9627 9.73324 11.99 9.66712 12.0384 9.61837C12.0869 9.56962 12.1526 9.54223 12.2211 9.54223H12.6922C12.7607 9.54223 12.8264 9.56962 12.8749 9.61837C12.9233 9.66712 12.9505 9.73324 12.9505 9.80219V12.0624C13.4462 11.362 14.1015 10.7913 14.8613 10.3981C15.6212 10.0049 16.4637 9.80052 17.3182 9.80219C18.0236 9.79937 18.7227 9.9369 19.3751 10.2069C20.0275 10.4769 20.6205 10.8739 21.1199 11.3753C21.6193 11.8767 22.0152 12.4725 22.285 13.1284C22.5548 13.7843 22.6931 14.4874 22.6919 15.1972C22.703 15.9097 22.5697 16.617 22.3 17.2759C22.0304 17.9348 21.63 18.5315 21.1235 19.0294Z" fill="white"/>
<path d="M17.3338 10.7992C16.3961 10.7894 15.4815 11.0915 14.7321 11.6586C13.9752 12.2007 13.4225 12.9842 13.1637 13.8821C13.0353 14.295 12.9688 14.7248 12.9662 15.1574C12.9464 15.9511 13.1464 16.7347 13.5437 17.4207C13.9377 18.0789 14.4932 18.6243 15.1569 19.0045C15.8205 19.3848 16.5701 19.5871 17.3338 19.5921C17.9103 19.6068 18.4836 19.5013 19.0176 19.2824C19.5516 19.0634 20.0349 18.7357 20.437 18.3198C20.8455 17.9122 21.1672 17.425 21.3825 16.8882C21.5978 16.3513 21.7022 15.776 21.6893 15.1972C21.6861 14.0344 21.2267 12.9199 20.411 12.0963C19.5953 11.2726 18.4894 10.8064 17.3338 10.7992Z" fill="white"/>
<path d="M36.9531 19.7452V9.32214H41.3876C41.8246 9.31804 42.2564 9.41647 42.649 9.60964C43.0263 9.79602 43.3631 10.0559 43.6398 10.3742C43.9165 10.6905 44.1366 11.0527 44.2903 11.4447C44.4453 11.8337 44.5248 12.249 44.5243 12.6681C44.5256 13.0234 44.4744 13.3769 44.3723 13.7171C44.2753 14.0442 44.1276 14.3538 43.9347 14.6346C43.7466 14.9062 43.5143 15.144 43.2477 15.338C42.9733 15.5365 42.6638 15.6808 42.3359 15.7632L44.8465 19.7575H43.3572L40.9925 16.014H38.257V19.7452H36.9531ZM38.2661 14.8273H41.4028C41.6588 14.8306 41.9116 14.7696 42.1384 14.6499C42.3572 14.5326 42.5488 14.37 42.7007 14.1728C42.861 13.9631 42.9844 13.7272 43.0654 13.4755C43.1529 13.2102 43.1971 12.9323 43.1961 12.6528C43.1982 12.3693 43.1466 12.088 43.0441 11.8239C42.9471 11.5725 42.8095 11.339 42.6368 11.1327C42.475 10.9418 42.2765 10.7858 42.0533 10.674C41.8283 10.5624 41.5807 10.5048 41.3299 10.5058H38.2905L38.2661 14.8273Z" fill="white"/>
<path d="M49.8068 19.892C49.2666 19.9015 48.7304 19.7973 48.2324 19.5862C47.7739 19.3847 47.3605 19.0925 47.0167 18.7268C46.6723 18.3593 46.4019 17.9283 46.2203 17.4575C46.0301 16.9705 45.9331 16.4516 45.9346 15.9283C45.9318 15.4049 46.0288 14.8858 46.2203 14.3991C46.399 13.9248 46.6685 13.4904 47.0136 13.1207C47.3643 12.7548 47.7838 12.4626 48.2476 12.2613C48.7456 12.0502 49.2818 11.946 49.822 11.9554C50.5891 11.9414 51.3416 12.1676 51.9754 12.6026C52.6092 13.0376 53.093 13.6601 53.3599 14.3838C53.5392 14.8544 53.6309 15.3541 53.6304 15.858C53.6304 15.966 53.6304 16.068 53.6304 16.1638C53.6277 16.2325 53.6206 16.301 53.6091 16.3687H47.2841C47.3075 16.7295 47.3961 17.0829 47.5455 17.4117C47.6835 17.714 47.8762 17.9878 48.1139 18.2191C48.3449 18.443 48.6149 18.6223 48.9102 18.7482C49.2081 18.8754 49.5288 18.94 49.8524 18.9378C50.0847 18.9384 50.3158 18.9065 50.5393 18.843C50.7571 18.7817 50.9672 18.6955 51.1655 18.5861C51.3565 18.4803 51.5307 18.3463 51.6822 18.1885C51.8301 18.0366 51.9468 17.8568 52.0256 17.6594L53.135 17.9652C53.007 18.2514 52.8324 18.5139 52.6183 18.7421C52.3952 18.9812 52.1393 19.1872 51.8584 19.3538C51.5595 19.5303 51.2386 19.666 50.9041 19.7575C50.5461 19.8522 50.177 19.8975 49.8068 19.892ZM52.4177 15.3992C52.392 15.0495 52.3002 14.708 52.1472 14.393C52.0067 14.0985 51.8141 13.8322 51.5788 13.607C51.217 13.2712 50.768 13.0453 50.284 12.9555C49.7999 12.8657 49.3004 12.9155 48.8433 13.0993C48.5476 13.2176 48.2773 13.3921 48.047 13.6131C47.8156 13.8382 47.628 14.1047 47.4938 14.3991C47.35 14.7134 47.2635 15.0511 47.2385 15.3962L52.4177 15.3992Z" fill="white"/>
<path d="M58.1805 19.8919C57.6761 19.896 57.1773 19.7852 56.7215 19.5678C56.2838 19.3599 55.8921 19.0655 55.5696 18.7022C55.2434 18.3319 54.9888 17.9035 54.8189 17.4391C54.6381 16.9562 54.5464 16.4442 54.5484 15.9282C54.5463 15.4076 54.6326 14.8904 54.8037 14.399C54.9609 13.932 55.2031 13.4985 55.5179 13.1206C55.8202 12.7616 56.1927 12.4691 56.6121 12.2612C57.0463 12.052 57.5229 11.9473 58.0042 11.9554C58.5872 11.9462 59.1593 12.1146 59.6455 12.4386C60.1077 12.7416 60.4988 13.1423 60.7913 13.613V9.02539H62.0739V18.1578C62.0739 18.4616 62.2097 18.6186 62.4812 18.6288V19.7451L62.1955 19.788C62.1206 19.7922 62.0455 19.7922 61.9706 19.788C61.7179 19.8009 61.4693 19.7204 61.2715 19.5616C61.1892 19.4949 61.122 19.4113 61.0743 19.3163C61.0266 19.2214 60.9996 19.1174 60.995 19.0111L60.9646 18.2924C60.6732 18.7741 60.2641 19.1726 59.7761 19.4499C59.2882 19.7273 58.7378 19.8742 58.1774 19.8766L58.1805 19.8919ZM58.4844 18.7756C58.7312 18.7736 58.9759 18.7291 59.2078 18.6441C59.4567 18.5552 59.692 18.4317 59.9068 18.2771C60.1226 18.1233 60.3142 17.9377 60.4752 17.7266C60.6252 17.5302 60.7291 17.3023 60.7792 17.0598V14.8578C60.6865 14.605 60.553 14.3694 60.384 14.1605C60.2133 13.9446 60.015 13.7523 59.7944 13.5885C59.58 13.4292 59.3448 13.3006 59.0953 13.2062C58.8605 13.1154 58.6114 13.0677 58.3598 13.0656C58.0029 13.0603 57.6501 13.1433 57.3325 13.3072C57.0292 13.4662 56.7614 13.6858 56.5453 13.9525C56.3236 14.2253 56.1527 14.5361 56.0407 14.87C55.9244 15.2127 55.8649 15.5723 55.8644 15.9344C55.8626 16.309 55.9317 16.6806 56.0681 17.0293C56.1934 17.3674 56.3811 17.6787 56.6212 17.9468C56.8541 18.2021 57.1338 18.4098 57.4449 18.5585C57.7714 18.71 58.128 18.7842 58.4874 18.7756H58.4844Z" fill="white"/>
<path d="M68.1436 19.8919C67.5735 19.8984 67.0128 19.7459 66.5236 19.4515C66.054 19.175 65.6594 18.7863 65.3747 18.3199V19.7573H64.241V9.05286H65.5236V13.6405C65.8271 13.158 66.2304 12.747 66.7059 12.4355C67.1622 12.161 67.6797 12.0065 68.2109 11.9862C68.742 11.9659 69.2697 12.0804 69.7453 12.3192C70.1584 12.5396 70.5232 12.8413 70.8183 13.2062C71.1226 13.5867 71.3554 14.02 71.5052 14.4846C71.6646 14.9648 71.7457 15.4678 71.7453 15.9741C71.7487 16.4967 71.6549 17.0153 71.4687 17.5033C71.2942 17.9647 71.0366 18.3898 70.7088 18.7572C70.3869 19.1145 69.9973 19.4036 69.563 19.6074C69.1167 19.807 68.6318 19.9042 68.1436 19.8919ZM67.8214 18.7756C68.1852 18.7792 68.5451 18.6986 68.873 18.5401C69.1916 18.3884 69.4768 18.1742 69.7119 17.91C69.9477 17.6409 70.1312 17.3297 70.2529 16.9925C70.3794 16.6522 70.4433 16.2915 70.4414 15.9282C70.4422 15.5605 70.3805 15.1953 70.259 14.8486C70.1448 14.5144 69.9718 14.2036 69.7484 13.931C69.5309 13.6674 69.2632 13.4501 68.9612 13.2918C68.6476 13.1286 68.299 13.0456 67.946 13.0502C67.6817 13.0489 67.4196 13.0988 67.174 13.197C66.9314 13.2945 66.7033 13.4252 66.4962 13.5854C66.287 13.7477 66.1009 13.9381 65.943 14.1512C65.7821 14.3674 65.6426 14.5989 65.5266 14.8424V17.0598C65.5734 17.3061 65.6775 17.5378 65.8306 17.7357C65.9921 17.942 66.1837 18.1224 66.399 18.2709C66.6151 18.4218 66.8501 18.5432 67.098 18.6318C67.3302 18.7214 67.5759 18.77 67.8244 18.7756H67.8214Z" fill="white"/>
<path d="M76.6507 19.8919C76.1309 19.899 75.6153 19.7969 75.1369 19.592C74.6586 19.3872 74.228 19.0841 73.8727 18.7022C73.534 18.3356 73.2688 17.9067 73.0916 17.439C72.9065 16.9572 72.8127 16.4448 72.815 15.9282C72.8122 15.4048 72.9091 14.8856 73.1007 14.399C73.2822 13.932 73.5492 13.5036 73.8879 13.1359C74.2318 12.7687 74.6451 12.4744 75.1037 12.2703C75.5922 12.0511 76.1219 11.9405 76.6568 11.9461C77.1771 11.941 77.6928 12.0444 78.1714 12.2496C78.65 12.4549 79.0812 12.7577 79.4379 13.1389C79.7765 13.5066 80.0436 13.9351 80.2251 14.402C80.4166 14.8887 80.5136 15.4078 80.5108 15.9312C80.513 16.4478 80.4191 16.9602 80.2342 17.4421C80.0575 17.9149 79.7892 18.3477 79.4448 18.7152C79.1004 19.0828 78.6869 19.3777 78.2282 19.583C77.7307 19.7992 77.1925 19.9046 76.6507 19.8919ZM74.128 15.9435C74.1246 16.3247 74.1916 16.7032 74.3256 17.0598C74.4492 17.3896 74.6327 17.6935 74.8666 17.9559C75.0909 18.2116 75.3637 18.4195 75.669 18.5676C75.9773 18.7126 76.3134 18.7878 76.6538 18.7878C76.9941 18.7878 77.3302 18.7126 77.6385 18.5676C77.9455 18.4194 78.2203 18.2115 78.447 17.9559C78.6854 17.6876 78.871 17.3763 78.9941 17.0384C79.1276 16.6795 79.1945 16.2991 79.1917 15.916C79.1936 15.5379 79.1266 15.1626 78.9941 14.8088C78.8709 14.471 78.6853 14.1596 78.447 13.8913C78.2202 13.6358 77.9454 13.4279 77.6385 13.2796C77.3309 13.1325 76.9943 13.0572 76.6538 13.0594C76.3125 13.0571 75.9754 13.1346 75.669 13.2857C75.3644 13.435 75.0918 13.6428 74.8666 13.8974C74.6319 14.1673 74.4485 14.4783 74.3256 14.8149C74.1903 15.1755 74.1223 15.5581 74.125 15.9435H74.128Z" fill="white"/>
<path d="M82.222 12.0807L84.301 14.9005L84.4165 15.136L84.5472 14.9005L86.6201 12.0807H87.9756L85.1307 15.9282L87.9908 19.7451H86.6352L84.5502 16.9405L84.4195 16.7203L84.304 16.9405L82.219 19.7451H80.8665L83.7265 15.9282L80.8816 12.0807H82.222Z" fill="white"/>
</g>
<defs>
<clipPath id="clip0">
<rect width="88" height="30" fill="white"/>
</clipPath>
</defs>
</svg>

