<svg width="21" height="18" viewBox="0 0 21 18" fill="none" xmlns="http://www.w3.org/2000/svg">
<path d="M21 1.29278V15.7719C21 16.4829 20.4149 17.0646 19.6997 17.0646H1.30031C0.585139 17.0646 0 16.4829 0 15.7719V1.29278C0 0.581749 0.585139 0 1.30031 0H19.6997C20.4149 0 21 0.581749 21 1.29278ZM18.0743 15.4487L13.0681 7.88593H7.93189L2.9257 15.4487H18.0743ZM1.62539 14.5437L6.50155 7.17491L1.62539 1.80989V14.5437ZM14.4985 7.17491L19.3746 14.5437V1.80989L14.4985 7.17491ZM17.4241 1.61597H3.57585L7.86687 6.3346H13.1331L17.4241 1.61597Z" fill="white"/>
</svg>

