<svg width="23" height="17" viewBox="0 0 23 17" fill="none" xmlns="http://www.w3.org/2000/svg">
<path d="M1.06376 9.88519L20.2222 0.251852C20.4064 0.125926 20.652 0 20.8976 0C21.1433 0 21.3889 0 21.5731 0.125926C21.8187 0.251852 21.9415 0.503704 22.0029 0.818518C22.0643 1.00741 22.0029 1.25926 21.9415 1.51111L18.8099 16.1185C18.8099 16.2444 18.7484 16.4333 18.6256 16.4963C18.5642 16.6222 18.4414 16.6852 18.3186 16.8111C18.1958 16.8741 18.073 16.937 17.8888 16.937C17.766 16.937 17.5818 16.937 17.4589 16.8741L9.72189 14.3556L9.10784 16.2444C9.04643 16.4333 8.92362 16.6222 8.73941 16.7481C8.55519 16.8741 8.37098 16.937 8.18676 17C8.00254 17 7.75692 17 7.57271 16.8741C7.38849 16.7481 7.26568 16.6222 7.14287 16.4333L5.42353 13.0963L1.18657 11.837C1.00235 11.7741 0.818138 11.6481 0.695328 11.4593C0.572517 11.3963 0.449707 11.1444 0.449707 10.9556C0.449707 10.7037 0.449707 10.5148 0.572517 10.3259C0.695328 10.137 0.818138 10.0111 1.06376 9.88519ZM15.3712 6.2963L6.83584 12.6556L7.94114 14.8593L8.37097 13.537C8.43238 13.2852 8.6166 13.0963 8.80081 12.9704L15.3712 6.2963ZM5.66915 11.6481L15.4326 4.34444L2.7217 10.7667L5.66915 11.6481ZM19.9766 3.77778L10.7658 13.1593L17.4589 15.3L19.9766 3.77778Z" fill="white"/>
</svg>

