<svg width="17" height="22" viewBox="0 0 17 22" fill="none" xmlns="http://www.w3.org/2000/svg">
<path d="M8.53411 0C9.32789 0 10.1217 0.135385 10.8493 0.473846C11.5769 0.812308 12.2384 1.21846 12.8337 1.82769C13.3629 2.36923 13.8259 3.04615 14.1567 3.85846C14.3551 4.53538 14.5536 5.34769 14.5536 6.16C14.5536 6.97231 14.4213 7.78462 14.0905 8.52923C13.7598 9.27385 13.3629 9.95077 12.7676 10.56C12.2384 11.1015 11.5769 11.5754 10.7831 11.9138C10.0555 12.1846 9.32789 12.3877 8.46797 12.3877C7.67419 12.3877 6.88042 12.2523 6.15279 11.9138C5.42517 11.5754 4.76369 11.1692 4.16836 10.56C3.63917 10.0185 3.17614 9.34154 2.8454 8.52923C2.64696 7.78462 2.51466 6.97231 2.51466 6.16C2.51466 5.34769 2.64696 4.53538 2.97769 3.79077C3.30843 3.04615 3.70532 2.36923 4.30065 1.76C4.82983 1.21846 5.49131 0.744615 6.28509 0.406154C6.94657 0.135385 7.67419 0 8.53411 0ZM10.1878 2.03077C9.65863 1.82769 9.12945 1.69231 8.53411 1.69231C7.93878 1.69231 7.34345 1.82769 6.88042 2.03077C6.28509 2.23385 5.82205 2.57231 5.42517 2.97846C4.96213 3.38462 4.63139 3.85846 4.43295 4.4C4.2345 4.94154 4.10221 5.55077 4.10221 6.16C4.10221 6.76923 4.2345 7.37846 4.43295 7.85231C4.63139 8.39385 4.96213 8.86769 5.35902 9.34154C5.75591 9.74769 6.21894 10.0862 6.81427 10.2892C7.34345 10.4923 7.87264 10.6277 8.46797 10.6277C9.0633 10.6277 9.65863 10.4923 10.1217 10.2892C10.6508 10.0862 11.1139 9.74769 11.5769 9.34154C11.9738 8.93538 12.3045 8.39385 12.503 7.85231C12.7014 7.31077 12.8337 6.76923 12.8337 6.16C12.8337 5.55077 12.7014 4.94154 12.503 4.46769C12.3045 3.92615 11.9738 3.45231 11.5769 2.97846C11.18 2.57231 10.717 2.23385 10.1878 2.03077ZM10.9154 12.6585C11.5769 12.8615 12.1722 13.0646 12.7014 13.4031C13.2968 13.7415 13.8259 14.08 14.289 14.5538C15.0166 15.2308 15.6119 15.9077 16.0088 16.6523C16.4057 17.3969 16.7365 18.1415 16.9349 18.9538C17.001 19.2923 17.001 19.6985 16.9349 20.0369C16.8687 20.3754 16.7364 20.7138 16.4719 21.0523C16.2734 21.3231 15.9427 21.5938 15.6781 21.7292C15.3473 21.8646 15.0166 22 14.6197 22H2.38236C1.98548 22 1.65474 21.9323 1.324 21.7292C0.993259 21.5938 0.728668 21.3231 0.530224 21.0523C0.33178 20.7815 0.133337 20.4431 0.067189 20.0369C0.00104116 19.6985 0.00104116 19.2923 0.067189 18.9538C0.265633 18.1415 0.530224 17.3292 0.993259 16.6523C1.39015 15.9077 1.98548 15.2308 2.7131 14.5538C3.17614 14.08 3.70532 13.7415 4.30065 13.4031C4.89598 13.0646 5.49131 12.8615 6.08664 12.6585L6.74812 12.4554L7.07886 13.0646L8.53411 16.0431L9.98937 13.0646L10.3201 12.4554L10.9154 12.6585ZM11.9077 14.8923C11.6431 14.7569 11.3785 14.6215 11.0477 14.4862L9.19559 18.2769L8.46797 19.7662L7.80649 18.2769L5.95435 14.4862C5.68976 14.6215 5.35902 14.7569 5.09443 14.8923C4.63139 15.1631 4.16836 15.5015 3.77147 15.84C3.17614 16.3815 2.7131 16.9231 2.38236 17.5323C2.05162 18.1415 1.78703 18.7508 1.65474 19.4277C1.65474 19.5631 1.58859 19.6985 1.65474 19.7662C1.65474 19.9015 1.72089 19.9692 1.78703 20.1046C1.85318 20.1723 1.91933 20.3077 2.05162 20.3077C2.11777 20.3754 2.25007 20.3754 2.38236 20.3754H14.6197C14.752 20.3754 14.8843 20.3754 14.9505 20.3077C15.0166 20.24 15.1489 20.1723 15.215 20.1046C15.2812 20.0369 15.3473 19.9015 15.3473 19.7662C15.3473 19.6308 15.3473 19.5631 15.3473 19.4277C15.1489 18.7508 14.9505 18.1415 14.6197 17.5323C14.289 16.9231 13.8259 16.3815 13.2306 15.84C12.8337 15.5015 12.3707 15.1631 11.9077 14.8923Z" fill="#9B63F8"/>
</svg>

