<svg width="45" height="45" viewBox="0 0 45 45" fill="none" xmlns="http://www.w3.org/2000/svg">
<circle cx="22.5" cy="22.5" r="22.5" fill="#FF2998"/>
<path d="M19.664 11.6H25.616L24.624 26.224H20.656L19.664 11.6ZM22.64 34.256C21.7653 34.256 21.0293 33.9787 20.432 33.424C19.856 32.848 19.568 32.1547 19.568 31.344C19.568 30.5333 19.856 29.8613 20.432 29.328C21.008 28.7733 21.744 28.496 22.64 28.496C23.536 28.496 24.272 28.7733 24.848 29.328C25.424 29.8613 25.712 30.5333 25.712 31.344C25.712 32.1547 25.4133 32.848 24.816 33.424C24.24 33.9787 23.5147 34.256 22.64 34.256Z" fill="white"/>
</svg>

