<svg width="22" height="22" viewBox="0 0 22 22" fill="none" xmlns="http://www.w3.org/2000/svg">
<path d="M9.1203 16.7682L6.52794 19.3606C5.4532 20.4353 3.71275 20.4353 2.63891 19.3608C1.56486 18.2867 1.56486 16.5461 2.6387 15.4723L7.82431 10.2867C8.89815 9.21281 10.6388 9.21281 11.7126 10.2867C12.0706 10.6447 12.651 10.6447 13.009 10.2867C13.367 9.92871 13.367 9.34829 13.009 8.99031C11.2192 7.20049 8.31777 7.20049 6.52794 8.99031L1.34237 14.1759C-0.447457 15.9657 -0.447457 18.8671 1.34237 20.6569C3.13198 22.4477 6.03359 22.4477 7.82436 20.6569L10.4167 18.0645C10.7747 17.7066 10.7747 17.1262 10.4167 16.7682C10.0587 16.4102 9.47827 16.4102 9.1203 16.7682Z" fill="#9B63F8"/>
<path d="M20.6572 1.34237C18.8673 -0.447456 15.965 -0.447456 14.1752 1.34237L11.0649 4.45263C10.7069 4.8106 10.7069 5.39102 11.0649 5.749C11.4229 6.10697 12.0033 6.10697 12.3613 5.749L15.4715 2.63874C16.5454 1.56486 18.2869 1.56486 19.3608 2.63874C20.4346 3.71257 20.4346 5.4532 19.3608 6.52703L13.6573 12.2306C12.5834 13.3045 10.8428 13.3045 9.76896 12.2306C9.41098 11.8726 8.83056 11.8726 8.47258 12.2306C8.11461 12.5886 8.11461 13.169 8.47258 13.527C10.2624 15.3168 13.1638 15.3168 14.9536 13.527L20.6572 7.82345C22.447 6.03362 22.447 3.13219 20.6572 1.34237Z" fill="#9B63F8"/>
</svg>

